<svg width="7" height="11" viewBox="0 0 7 11" fill="none" xmlns="http://www.w3.org/2000/svg">
<path d="M4.39424 5.47879L0.246237 1.33379C0.173369 1.26131 0.115546 1.17514 0.0760886 1.08024C0.0366316 0.985338 0.016319 0.883573 0.016319 0.780795C0.016319 0.678016 0.0366316 0.576251 0.0760886 0.481349C0.115546 0.386446 0.173369 0.300277 0.246237 0.227794C0.394087 0.081839 0.59348 0 0.801236 0C1.00899 0 1.20839 0.081839 1.35624 0.227794L6.05624 4.92779C6.19826 5.07029 6.2799 5.26204 6.28419 5.46318C6.28847 5.66433 6.21507 5.85938 6.07924 6.00779L1.35924 10.7338C1.28764 10.8111 1.2012 10.8732 1.10507 10.9163C1.00894 10.9595 0.9051 10.9828 0.799752 10.9849C0.694403 10.9871 0.58971 10.9679 0.491925 10.9287C0.39414 10.8894 0.305272 10.8308 0.23063 10.7565C0.155988 10.6821 0.0971035 10.5934 0.0574958 10.4958C0.0178881 10.3982 -0.0016303 10.2935 0.00010652 10.1882C0.00184334 10.0828 0.0248001 9.9789 0.0676047 9.88262C0.110409 9.78633 0.172183 9.69967 0.249236 9.62779L4.39424 5.47879Z" fill="white"/>
</svg>
