<svg xmlns="http://www.w3.org/2000/svg" width="21.115" height="32.077" viewBox="0 0 21.115 32.077">
  <path id="패스_25130" data-name="패스 25130" d="M1.888,1.36C0,2.789-.376,7.257.338,10.9A36.022,36.022,0,0,0,4.072,21.121a32.676,32.676,0,0,0,6.49,8.14c2.563,2.245,6.217,3.672,8.11,2.242a10.736,10.736,0,0,0,2.443-3.052L20.1,26.626l-2.8-5.021c-.208-.373-1.51-.032-2.172.4a7.1,7.1,0,0,0-1.715,2.17c-.612.412-1.125,0-2.2-.573-1.317-.706-2.8-2.9-3.975-4.883-1.076-2.063-2.191-4.531-2.207-6.219-.013-1.373-.126-2.086.447-2.569A5.688,5.688,0,0,0,7.886,9C8.5,8.472,9.3,7.225,9.089,6.852l-2.8-5.02L5.277.006A8.686,8.686,0,0,0,1.888,1.36" transform="translate(0 0)" fill="#45b7d2"/>
</svg>
