<svg xmlns="http://www.w3.org/2000/svg" width="237.789" height="162.544" viewBox="0 0 237.789 162.544">
  <g id="그룹_11876" data-name="그룹 11876" transform="translate(-1118.847 -2364.025)" opacity="0.3">
    <path id="패스_48429" data-name="패스 48429" d="M-13676.893-4682.32l-27.214-4.56-21.893,14.774,27.387,5.377Z" transform="translate(14901.484 7127.619)" fill="#d4f2f7"/>
    <path id="패스_48362" data-name="패스 48362" d="M89.747,90.877l5.022-3.437a1.75,1.75,0,0,1,1.283-.28l16.833,2.879c-.022-5.241-.126-9.88-.228-14.38-.1-4.431-.2-9-.23-14.2-4.563,1.211-9.256,2.437-14.026,3.684q-4.309,1.125-8.659,2.267Z" transform="translate(1100.876 2346.95)" fill="#fff"/>
    <path id="패스_48363" data-name="패스 48363" d="M81.478,40.885c-8.63,2.32-17.215,4.626-25.451,6.819l0,1.784c7.391-1.946,14.6-3.823,22.139-5.683a1.753,1.753,0,0,1,1.018.055c.817.3,1.659.6,2.508.9l0-3.775-.212-.1" transform="translate(1103.387 2348.483)" fill="#fff"/>
    <path id="패스_48364" data-name="패스 48364" d="M92.2,47.39l0-8.939-3.755,1.01-.948.255a1.807,1.807,0,0,1,.036.35l.006,5.734c1.513.521,3.077,1.052,4.666,1.591" transform="translate(1101.044 2348.664)" fill="#fff"/>
    <path id="패스_48365" data-name="패스 48365" d="M80.916,70.514l.007,26.5,4.666-3.192-.006-24.94q-2.356.622-4.71,1.249a1.712,1.712,0,0,1,.044.38" transform="translate(1101.536 2346.397)" fill="#fff"/>
    <path id="패스_48366" data-name="패스 48366" d="M62.068,52.16c6.145,2.439,12.3,5.313,18.307,8.119,2,.936,3.985,1.863,5.944,2.762.04.019.075.045.115.067,3.015-.792,6.03-1.581,9.022-2.362,3.953-1.033,7.86-2.054,11.679-3.061-5.1-1.925-10.747-3.842-16.261-5.71-4.23-1.432-8.234-2.789-11.933-4.126C73.21,49.266,67.659,50.7,62.068,52.16" transform="translate(1102.937 2347.965)" fill="#fff"/>
    <path id="패스_48368" data-name="패스 48368" d="M47.7,50.6l2.306-.608,0-2.92C41.037,43.033,32.3,39.421,22.174,35.3l0,21.938c9.141-2.311,17.447-4.5,25.527-6.636" transform="translate(1105.909 2348.899)" fill="#fff"/>
    <path id="패스_48369" data-name="패스 48369" d="M74.279,37.544l-.542-.248C65.76,33.626,57.51,29.832,49.46,27.064a1.729,1.729,0,0,1-.641-.4C41.741,28.531,34.4,30.448,26.37,32.461c9.265,3.78,17.428,7.181,25.851,10.989,7.148-1.9,14.569-3.893,22.058-5.906" transform="translate(1105.596 2349.542)" fill="#fff"/>
    <path id="패스_48370" data-name="패스 48370" d="M81.841,35.893l3.405-.916,1.669-.448c-.765-.357-1.52-.7-2.292-1.065-7.522-3.516-15.293-7.143-22.888-9.832L56.907,24.9l-.151.04c6.941,2.623,13.92,5.825,20.705,8.946,1.475.678,2.927,1.34,4.38,2" transform="translate(1103.333 2349.767)" fill="#fff"/>
    <path id="패스_48371" data-name="패스 48371" d="M92.918,32.589c.04.019.072.044.11.065,6.894-1.854,13.724-3.686,20.326-5.448-5.1-1.926-10.752-3.844-16.27-5.712-4.229-1.433-8.234-2.789-11.933-4.126-5.667,1.4-11.158,2.816-16.687,4.261,6.214,2.456,12.444,5.362,18.512,8.2,2,.935,3.985,1.862,5.942,2.761" transform="translate(1102.461 2350.234)" fill="#fff"/>
    <path id="패스_48372" data-name="패스 48372" d="M95.245,142.543l8.445,4.187-.04-6.545L95.2,136Z" transform="translate(1100.469 2341.4)" fill="#fff"/>
    <path id="패스_48373" data-name="패스 48373" d="M50.7,55.391l-.334.088c6.873,2.608,13.78,5.777,20.5,8.868,1.458.671,2.892,1.324,4.33,1.98q2.543-.682,5.093-1.356c-.756-.353-1.5-.7-2.263-1.051-7.451-3.483-15.147-7.073-22.674-9.754L50.7,55.391" transform="translate(1103.809 2347.494)" fill="#fff"/>
    <path id="패스_48374" data-name="패스 48374" d="M96.364,48.02c6.6,2.237,13.294,4.538,18.959,6.854a1.751,1.751,0,0,1,1.087,1.62c0,6.315.121,11.654.238,16.818.006.309.014.622.02.933l2.446-.923c-.013-5.98-.124-13.922-.231-21.619-.1-7.265-.2-14.725-.231-20.721-7.206,1.92-14.707,3.933-22.294,5.972Z" transform="translate(1100.384 2349.22)" fill="#fff"/>
    <path id="패스_48376" data-name="패스 48376" d="M146.5,102.733l-15.664,11.321a36.483,36.483,0,0,1,4.429-1.117c.376-.068.754-.132,1.134-.2a12.88,12.88,0,0,0,4.775-1.416A12.719,12.719,0,0,0,143,109.784c.445-.425.907-.863,1.42-1.279a12.973,12.973,0,0,1,15.011-.7,4.235,4.235,0,0,1,1.75,2.006c.375,1.006.423,2.612-1.473,4.544a24.168,24.168,0,0,1-4.945,3.877,12.386,12.386,0,0,1-.7,7.914,1.749,1.749,0,1,1-3.2-1.419,8.97,8.97,0,0,0,.173-6.711,1.75,1.75,0,0,1,.835-2.183,20.763,20.763,0,0,0,5.338-3.929,2.759,2.759,0,0,0,.657-.9,2.57,2.57,0,0,0-.377-.289,9.52,9.52,0,0,0-10.871.507c-.4.326-.8.7-1.209,1.093a12.278,12.278,0,0,1-8.433,3.873c-.362.06-.723.121-1.082.187a33.438,33.438,0,0,0-11.885,4.682,1.745,1.745,0,0,1-2.314-.4l-2.2,1.588,33.48,5.726,29.092-19.9-35.031-5.993a1.729,1.729,0,0,1-.541.656" transform="translate(1098.661 2343.926)" fill="#fff"/>
    <path id="패스_48379" data-name="패스 48379" d="M140.473,74.455l.106,20.643,15.158,2.592-.1-23.252a20.662,20.662,0,0,1-15.162.017" transform="translate(1097.099 2345.984)" fill="#fff"/>
    <path id="패스_48380" data-name="패스 48380" d="M113.5,121.246a1.739,1.739,0,0,1,.273-.246l27.51-19.883L132.4,99.6c-.027.021-.048.045-.077.065l-29.194,19.81Z" transform="translate(1099.879 2344.111)" fill="#fff"/>
    <path id="패스_48381" data-name="패스 48381" d="M111.813,126.392l-11.6-1.983,0,6.929,11.6,1.983Z" transform="translate(1100.097 2342.263)" fill="#fff"/>
    <path id="패스_48382" data-name="패스 48382" d="M106.767,136.852l-2.022-.346,1.119.554Z" transform="translate(1099.76 2341.362)" fill="#fff"/>
    <path id="패스_48385" data-name="패스 48385" d="M140.451,69.646c.085.521,2.6,2.219,7.582,2.219s7.506-1.7,7.582-2.222c-.076-.512-2.587-2.217-7.582-2.217s-7.5,1.7-7.582,2.219" transform="translate(1097.099 2346.506)" fill="#fff"/>
    <path id="패스_48386" data-name="패스 48386" d="M192.044,121.189v-.121l-.124.085.124.036" transform="translate(1093.268 2342.511)" fill="#fff"/>
    <path id="패스_48387" data-name="패스 48387" d="M153.158,132.237a1.746,1.746,0,0,1-.294-.025L116.527,126l0,6.929.215.037a1.783,1.783,0,0,1,.243.042l35.771,6.119,31.9-21.825V111.06l-30.506,20.872a1.75,1.75,0,0,1-.988.305" transform="translate(1098.882 2343.257)" fill="#fff"/>
    <path id="패스_48388" data-name="패스 48388" d="M216.882,54.268c-6.021-1.578-11.975-3.117-18.137-4.642-3.7,1.338-7.709,2.7-11.939,4.129-5.512,1.867-11.158,3.783-16.254,5.707,3.818,1.007,7.723,2.027,11.675,3.06,3.507.915,7.041,1.84,10.579,2.771q2.71-1.276,5.473-2.6c6.1-2.916,12.36-5.9,18.6-8.423" transform="translate(1094.858 2347.832)" fill="#fff"/>
    <path id="패스_48389" data-name="패스 48389" d="M167.013,63.238c-.027,5.453-.127,10.9-.228,16.192-.115,6.035-.233,12.276-.233,18.364a1.726,1.726,0,0,1-.1.564l23.7,4.053,0-33.1q-4.572-1.2-9.116-2.388c-4.77-1.246-9.463-2.472-14.025-3.682" transform="translate(1095.164 2346.818)" fill="#fff"/>
    <path id="패스_48390" data-name="패스 48390" d="M141.3,162.931l45.2-15.247v-6.749l-45.143,15.23Z" transform="translate(1097.037 2341.032)" fill="#fff"/>
    <path id="패스_48391" data-name="패스 48391" d="M153.757,144.048a1.751,1.751,0,0,1-1.283.28L116.2,138.123l-4.9,1.129,26.435,13.1,43.338-14.621-11.2-4.708Z" transform="translate(1099.272 2341.622)" fill="#fff"/>
    <path id="패스_48392" data-name="패스 48392" d="M228.115,57.136l-3.227-.851C217.294,59.036,209.52,62.747,202,66.344c-.588.28-1.161.55-1.745.829q1.57.417,3.139.836c1.732-.786,3.473-1.583,5.237-2.394,6.388-2.938,12.947-5.947,19.486-8.478" transform="translate(1092.647 2347.336)" fill="#fff"/>
    <path id="패스_48393" data-name="패스 48393" d="M256.973,64.639c-7.96-2-15.253-3.9-22.284-5.754-7.936,2.755-16.059,6.487-23.919,10.1-.473.217-.933.426-1.4.641,7.561,2.054,15,4.151,22.084,6.3q2.833-1.29,5.721-2.626c6.492-3,13.156-6.074,19.8-8.663" transform="translate(1091.969 2347.143)" fill="#fff"/>
    <path id="패스_48394" data-name="패스 48394" d="M195.834,118.289a1.535,1.535,0,0,1-.017.161q2.342.676,4.681,1.353l.007-47.776q-2.331-.621-4.665-1.237Z" transform="translate(1092.977 2346.256)" fill="#fff"/>
    <path id="패스_48395" data-name="패스 48395" d="M235.263,79.551l-.007,47.949c1.277-.586,2.548-1.165,3.842-1.763,7.858-3.628,15.969-7.363,23.991-10.218l.007-48.08c-7.5,2.746-15.128,6.26-22.529,9.677-1.786.825-3.549,1.635-5.3,2.434" transform="translate(1090.04 2346.506)" fill="#fff"/>
    <path id="패스_48396" data-name="패스 48396" d="M204.656,121c8.338,2.428,16.636,4.869,24.822,7.307l.007-48.146c-7.943-2.4-16.323-4.732-24.822-7.017Z" transform="translate(1092.32 2346.081)" fill="#fff"/>
    <path id="패스_48397" data-name="패스 48397" d="M38.506,75.339c-7.4-3.417-15.03-6.931-22.528-9.677l.006,48.08C24,116.6,32.113,120.33,39.969,123.958c1.3.6,2.568,1.179,3.848,1.766l-.006-47.95c-1.755-.8-3.518-1.61-5.3-2.434" transform="translate(1106.37 2346.638)" fill="#fff"/>
    <path id="패스_48398" data-name="패스 48398" d="M89.86,140.4l-.043-6.444-19.783-3.385Z" transform="translate(1102.345 2341.804)" fill="#fff"/>
    <path id="패스_48399" data-name="패스 48399" d="M70.616,135.43l-8.84,1.72L85.351,158.4l22.692-4.415Z" transform="translate(1102.959 2341.442)" fill="#fff"/>
    <path id="패스_48400" data-name="패스 48400" d="M135.385,155.908,108.123,142.4l.04,6.546,27.17,13.469Z" transform="translate(1099.507 2340.923)" fill="#fff"/>
    <path id="패스_48401" data-name="패스 48401" d="M59.588,145.866l23.322,21.023.026-5.439L59.588,140.4Z" transform="translate(1103.122 2341.072)" fill="#fff"/>
    <path id="패스_48402" data-name="패스 48402" d="M75.105,71.429l-.262-.119c-8.565,2.3-17.009,4.653-25.013,7.068l.006,48.146c2.823-.838,5.624-1.66,8.442-2.479a1.737,1.737,0,0,1-.486-1.2v-10.5c0-.031.007-.059.008-.09s.006-.059.009-.089a1.738,1.738,0,0,1,.882-1.342l16.42-11.234Z" transform="translate(1103.848 2346.217)" fill="#fff"/>
    <path id="패스_48403" data-name="패스 48403" d="M93.889,123.326l-31.674-5.418v6.929l31.672,5.418Z" transform="translate(1102.926 2342.747)" fill="#fff"/>
    <path id="패스_48404" data-name="패스 48404" d="M67.236,67.753C59.258,64.084,51.009,60.29,42.96,57.522a1.743,1.743,0,0,1-.522-.3C35.932,58.939,29.185,60.7,21.9,62.535a1.746,1.746,0,0,1-.579.64c6.4,2.527,12.8,5.475,19.05,8.358q2.89,1.336,5.721,2.626C53.042,72.053,60.327,70,67.735,67.982c-.168-.078-.331-.151-.5-.229" transform="translate(1105.972 2347.266)" fill="#fff"/>
    <path id="패스_48405" data-name="패스 48405" d="M115.2,158.244l-26.613,5.178-.031,6.614,23.222-4.518a1.754,1.754,0,0,1,.828-.161l12.166-2.367Z" transform="translate(1100.964 2339.743)" fill="#fff"/>
    <path id="패스_48406" data-name="패스 48406" d="M195.77,171.206l27.2-20.114-32.2-5.6v3.788a1.749,1.749,0,0,1-1.19,1.658L151.8,163.684Z" transform="translate(1096.255 2340.694)" fill="#fff"/>
    <path id="패스_48407" data-name="패스 48407" d="M138.85,168.8a1.647,1.647,0,0,1-1.048.014,1.736,1.736,0,0,1-1.027-.47l-4.488-2.225a1.75,1.75,0,0,1-.194.058L120.5,168.436l32,15.3,23.695-10.4-33.71-5.766Z" transform="translate(1098.587 2339.157)" fill="#fff"/>
    <path id="패스_48408" data-name="패스 48408" d="M231.315,60.314c-6.217,2.356-12.5,5.2-18.65,8.023l18.284,5.2,19.083-8.208Z" transform="translate(1091.723 2347.036)" fill="#d4f2f7"/>
    <path id="패스_48409" data-name="패스 48409" d="M199.339,51.768l-19.9,7.181,17.333,4.932c.725-.345,1.439-.682,2.17-1.031,5.048-2.415,10.209-4.861,15.377-7.066Z" transform="translate(1094.198 2347.673)" fill="#d4f2f7"/>
    <path id="패스_48410" data-name="패스 48410" d="M46.124,58.558c6.488,2.46,12.268,5.152,18.686,8.1L46.894,71.869,26.965,63.636Z" transform="translate(1105.551 2347.167)" fill="#d4f2f7"/>
    <path id="패스_48411" data-name="패스 48411" d="M78.932,49.878,99.7,57.373,83.2,61.6c-.756-.36-1.5-.712-2.265-1.076-5.269-2.519-10-4.7-15.4-7Z" transform="translate(1102.679 2347.813)" fill="#d4f2f7"/>
    <path id="패스_48412" data-name="패스 48412" d="M52.346,28c6.488,2.46,13.048,5.425,19.465,8.373L52.729,41.8,32.813,33.238Z" transform="translate(1105.116 2349.442)" fill="#d4f2f7"/>
    <path id="패스_48413" data-name="패스 48413" d="M86.254,19.616l20.773,7.495-16.45,4.435c-.756-.36-1.5-.712-2.264-1.076-5.269-2.519-10.655-5.073-16.05-7.376Z" transform="translate(1102.179 2350.067)" fill="#d4f2f7"/>
    <path id="패스_48414" data-name="패스 48414" d="M137.306,112.872a9.018,9.018,0,0,0,6.6-2.957c.445-.425.907-.864,1.42-1.279a12.973,12.973,0,0,1,15.011-.7,4.231,4.231,0,0,1,1.75,2.006c.375,1.006.423,2.611-1.472,4.543a24.237,24.237,0,0,1-4.946,3.878,12.413,12.413,0,0,1,.2,4.833l21.248-14.254-31.044-5.113-14.327,10.356a36.233,36.233,0,0,1,4.429-1.117q.564-.1,1.134-.2" transform="translate(1097.749 2343.795)" fill="#d4f2f7"/>
    <path id="패스_48417" data-name="패스 48417" d="M161.832,141.227l13.831-4.59-4.383-1.875Z" transform="translate(1095.508 2341.492)" fill="#29abe2"/>
    <path id="패스_48418" data-name="패스 48418" d="M116.918,138.617,138,148.312l12.16-4.035Z" transform="translate(1098.853 2341.205)" fill="#d4f2f7"/>
    <path id="패스_48419" data-name="패스 48419" d="M67.037,137.8l19.493,17.235,17.186-3.3L73.286,136.65Z" transform="translate(1102.568 2341.351)" fill="#d4f2f7"/>
    <path id="패스_48420" data-name="패스 48420" d="M194.709,167.292,216.56,151.75l-25.225-4.164v1.849a1.75,1.75,0,0,1-1.19,1.658L159.282,161.5Z" transform="translate(1095.698 2340.537)" fill="#d4f2f7"/>
    <path id="패스_48421" data-name="패스 48421" d="M153.176,179.6l16.856-7.386-27.1-4.637-3.635,1.226a1.742,1.742,0,0,1-.56.093,1.718,1.718,0,0,1-.488-.079,1.736,1.736,0,0,1-1.028-.47l-4.488-2.225a1.663,1.663,0,0,1-.193.058l-6.086,1.185Z" transform="translate(1098.143 2339.157)" fill="#d4f2f7"/>
    <path id="패스_48422" data-name="패스 48422" d="M217.2,138.517l-36.821-6.406v-2.736a1.633,1.633,0,0,0-.02-.2c0-.034.019-.066.019-.1a1.748,1.748,0,0,0-1.071-1.676l-13.381-5.626,8.863-6.064c13.956,4.01,27.953,8.107,41.608,12.181h.006c.015,0,.031,0,.045.008a1.731,1.731,0,0,0,.445.065h0c.036,0,.072-.009.108-.012a1.917,1.917,0,0,0,.244-.025c.043-.009.084-.028.127-.04l.007,0c.035-.01.07-.019.1-.032s.069-.021.1-.035a.248.248,0,0,1,.028-.009c2.085-.947,4.2-1.922,6.333-2.907,8.165-3.77,16.609-7.667,24.848-10.511.02-.007.038-.019.058-.027.048-.019.093-.042.14-.065a1.877,1.877,0,0,0,.176-.1c.032-.021.062-.045.094-.068a1.766,1.766,0,0,0,.176-.146c.022-.021.042-.045.063-.068a1.68,1.68,0,0,0,.155-.189c.018-.024.031-.05.047-.076a1.753,1.753,0,0,0,.117-.217c.012-.027.02-.055.031-.081a1.773,1.773,0,0,0,.076-.244c.006-.026.008-.052.013-.079a1.743,1.743,0,0,0,.028-.271c0-.009,0-.018,0-.028l.007-51.334a1.773,1.773,0,0,0-.032-.316,1.68,1.68,0,0,0,.027-.225,1.749,1.749,0,0,0-1.329-1.62c-12.381-3.054-23.082-5.88-33.431-8.613-9.485-2.5-18.444-4.869-27.943-7.213a1.759,1.759,0,0,0-1.018.055c-3.8,1.384-7.964,2.793-12.37,4.285-7.169,2.429-14.583,4.94-20.764,7.466a1.749,1.749,0,0,0-1.088,1.62c0,6.318-.119,12.675-.236,18.823-.115,6.046-.234,12.3-.234,18.413l-1.879-.321-.123-28.128c0-.021-.006-.042-.006-.062-.049-2.6-2.774-4.321-6.281-5.126l-.11-7.391c0-.039-.01-.076-.014-.114-.141-3.661-5.632-5.579-11.068-5.579-5.506,0-11.081,1.965-11.081,5.719,0,.054.013.1.015.156s-.015.1-.015.15l.127,35.49-10.519-1.8c-.011-3.728-.064-7.148-.131-10.416l4.735-1.784a1.749,1.749,0,0,0,1.133-1.637c0-6.117-.119-14.637-.234-22.877-.117-8.383-.238-17.05-.238-23.372a1.75,1.75,0,0,0-1.088-1.62c-6.183-2.528-13.6-5.04-20.773-7.469-4.4-1.491-8.559-2.9-12.36-4.282a1.759,1.759,0,0,0-1.018-.055c-9.5,2.343-18.459,4.709-27.945,7.214-10.349,2.732-21.05,5.558-33.43,8.611a1.751,1.751,0,0,0-1.325,1.573,1.681,1.681,0,0,0,.024.281,1.753,1.753,0,0,0-.031.306l0,24.957q-2.17.543-4.406,1.095a1.749,1.749,0,0,0-1.328,1.62,1.657,1.657,0,0,0,.026.225,1.771,1.771,0,0,0-.031.316l.007,51.335,0,.028a1.771,1.771,0,0,0,.028.271c0,.026.007.053.013.078a1.7,1.7,0,0,0,.076.244c.01.028.019.056.031.082a1.651,1.651,0,0,0,.118.217c.016.025.029.052.046.076a1.764,1.764,0,0,0,.155.188c.02.023.04.047.062.068a1.679,1.679,0,0,0,.177.145c.031.023.06.048.093.068a1.792,1.792,0,0,0,.176.1,1.5,1.5,0,0,0,.141.065c.019.008.037.02.057.027,8.236,2.842,16.677,6.739,24.839,10.508,2.136.987,4.253,1.964,6.342,2.911a.247.247,0,0,0,.028.009c.033.015.068.024.1.036s.068.022.1.032l.007,0c.043.012.084.031.127.039a1.78,1.78,0,0,0,.245.026c.036,0,.072.011.108.011h0a1.717,1.717,0,0,0,.444-.064c.015,0,.031,0,.044-.008h.008c4.668-1.394,9.251-2.736,13.946-4.088a1.745,1.745,0,0,0,.9,1.075l1.131.561L53.974,125.3a1.721,1.721,0,0,0-1.407,1.786c0,.027-.008.052-.008.079v10.025a1.752,1.752,0,0,0,.578,1.3l26.827,24.183a1.752,1.752,0,0,0,1.172.451,1.706,1.706,0,0,0,.334-.033l25.2-4.9,36.977,17.684a1.741,1.741,0,0,0,1.458.024l28.928-12.692a1.747,1.747,0,0,0,.3-.169l11.187,1.913a1.665,1.665,0,0,0,.3.026,1.748,1.748,0,0,0,1.04-.343l31.087-22.987a1.749,1.749,0,0,0-.74-3.13m-85.519,14.924.056-6.767,45.143-15.23v6.749Zm-30.665-14.093-.04-6.546,27.262,13.507-.053,6.508Zm5.9,15.231a1.746,1.746,0,0,0-.826.16l-23.223,4.518.031-6.614,26.613-5.177,9.573,4.745ZM65.727,121.851l19.783,3.384.043,6.444ZM21.22,59.279c7.286-1.836,14.033-3.6,20.538-5.308a1.757,1.757,0,0,0,.523.3c8.049,2.767,16.3,6.562,24.279,10.233l.5.227C59.647,66.741,52.362,68.8,45.411,70.9q-2.835-1.29-5.724-2.628c-6.245-2.883-12.652-5.831-19.047-8.357a1.753,1.753,0,0,0,.579-.64m62.406,32.5,6.76-4.625,30.283,5.18L91.385,112.21l-30.09-5.148L82.685,92.426a1.739,1.739,0,0,0,.94-.643m50.886,2.923L107,114.588a1.79,1.79,0,0,0-.273.247l-10.367-1.773,29.194-19.81c.029-.019.05-.044.077-.065Zm39.566,6.767-29.092,19.905-33.48-5.727,2.2-1.587a1.745,1.745,0,0,0,2.314.4,33.467,33.467,0,0,1,11.885-4.681c.359-.066.72-.127,1.082-.187a12.3,12.3,0,0,0,8.435-3.874c.414-.394.805-.766,1.207-1.092a9.519,9.519,0,0,1,10.871-.507,2.6,2.6,0,0,1,.378.289,2.769,2.769,0,0,1-.657.9,20.787,20.787,0,0,1-5.339,3.929,1.749,1.749,0,0,0-.834,2.182,8.971,8.971,0,0,1-.174,6.711,1.749,1.749,0,1,0,3.2,1.42,12.374,12.374,0,0,0,.7-7.914,24.2,24.2,0,0,0,4.946-3.878c1.9-1.933,1.846-3.537,1.473-4.543a4.237,4.237,0,0,0-1.751-2.006,12.973,12.973,0,0,0-15.011.7c-.512.415-.973.853-1.419,1.278a12.79,12.79,0,0,1-1.827,1.542,12.885,12.885,0,0,1-4.775,1.416c-.379.064-.758.128-1.133.2a36.37,36.37,0,0,0-4.43,1.117L138.5,96.137a1.736,1.736,0,0,0,.541-.656Zm40.034-47.522c-6.539,2.531-13.1,5.54-19.486,8.478-1.764.811-3.5,1.609-5.238,2.394q-1.567-.419-3.139-.836c.585-.28,1.158-.549,1.746-.83,7.522-3.6,15.3-7.307,22.888-10.058l3.228.851m1.041,21.767-.007,48.147c-8.188-2.438-16.486-4.88-24.821-7.307L190.33,68.7c8.5,2.285,16.879,4.619,24.822,7.016m-28.321-7.956-.006,47.776q-2.341-.679-4.682-1.354c0-.054.016-.106.016-.16l.007-47.5q2.334.616,4.666,1.237m-41.846,64.1-35.774-6.119a1.652,1.652,0,0,0-.243-.042l-.213-.037,0-6.929,36.337,6.216a1.749,1.749,0,0,0,1.282-.28L176.882,103.8v6.238Zm-86.5-14.8v-6.929l31.674,5.418,0,6.929Zm35.174-.914,11.594,1.983,0,6.93-11.6-1.983Zm4.189,11.2,2.023.346-.9.208ZM75.808,92.892,75.8,66.39a1.727,1.727,0,0,0-.044-.381q2.353-.626,4.71-1.249l.006,24.94ZM82.719,60.55c-.039-.022-.073-.048-.114-.068-1.957-.9-3.94-1.825-5.942-2.761-6-2.805-12.163-5.68-18.31-8.12,5.593-1.462,11.143-2.893,16.873-4.31,3.7,1.337,7.7,2.693,11.933,4.126,5.513,1.867,11.163,3.784,16.262,5.709-3.822,1.008-7.73,2.029-11.686,3.063Q87.25,59.36,82.719,60.55M86.6,45.531c-1.588-.539-3.152-1.07-4.666-1.591l-.006-5.734a1.815,1.815,0,0,0-.036-.35l.93-.25,3.772-1.014Zm-8.171-6.589,0,3.776c-.85-.3-1.691-.6-2.509-.9a1.748,1.748,0,0,0-1.017-.055c-7.539,1.859-14.748,3.737-22.14,5.683l0-1.784c8.236-2.194,16.822-4.5,25.451-6.819l.213.1M52.5,51.136c7.528,2.681,15.225,6.272,22.676,9.755.762.356,1.5.7,2.26,1.05q-2.55.675-5.093,1.356c-1.436-.654-2.869-1.308-4.327-1.978-6.717-3.09-13.627-6.26-20.5-8.868l.334-.089L52.5,51.136M47.027,74.074c8-2.416,16.448-4.767,25.013-7.069l.262.12.007,28.161L55.889,106.52a1.738,1.738,0,0,0-.881,1.341c0,.031-.007.06-.009.092s-.009.057-.009.088v10.5a1.741,1.741,0,0,0,.49,1.205q-4.241,1.231-8.445,2.479Zm42.036,59.347-.043-6.544,8.448,4.186.04,6.545Zm84.627-4.592-43.338,14.621-26.435-13.1,4.9-1.13,36.277,6.206a1.748,1.748,0,0,0,1.282-.28l16.116-11.027Zm4.968-15.77v.12l-.123-.035Zm43.829,8.661c-1.294.6-2.565,1.177-3.842,1.764l.006-47.949c1.754-.8,3.517-1.609,5.3-2.434,7.4-3.417,15.03-6.931,22.529-9.678l-.006,48.08c-8.022,2.855-16.133,6.591-23.991,10.218m0-51.8q-2.892,1.334-5.722,2.626c-7.089-2.148-14.523-4.245-22.084-6.3.471-.217.931-.424,1.4-.641,7.861-3.615,15.984-7.347,23.919-10.1,7.031,1.852,14.324,3.756,22.284,5.754-6.645,2.589-13.31,5.666-19.8,8.663M175.011,51.065c4.233-1.434,8.24-2.791,11.942-4.129,6.162,1.523,12.114,3.063,18.137,4.641C198.845,54.1,192.584,57.084,186.485,60q-2.764,1.323-5.472,2.6c-3.537-.931-7.072-1.855-10.58-2.771-3.952-1.033-7.857-2.053-11.675-3.06,5.1-1.923,10.742-3.839,16.252-5.706M155.065,94.091c0-6.088.118-12.329.233-18.364.1-5.292.2-10.739.227-16.193,4.562,1.21,9.254,2.437,14.025,3.683q4.536,1.184,9.116,2.387l0,33.1-23.7-4.054a1.722,1.722,0,0,0,.1-.563m-24.038-3.532-.106-20.642a20.662,20.662,0,0,0,15.162-.017l.1,23.252Zm15.036-24.932c-.076.518-2.589,2.223-7.581,2.223s-7.5-1.7-7.582-2.219c.084-.521,2.6-2.219,7.582-2.219s7.505,1.7,7.581,2.216M132.085,50.852c4.994,0,7.505,1.7,7.581,2.217-.076.517-2.587,2.221-7.581,2.221s-7.5-1.7-7.582-2.219c.085-.52,2.6-2.219,7.582-2.219m-7.567,6.5a20.625,20.625,0,0,0,15.211-.036l.04,2.633c-.428-.024-.857-.04-1.286-.04-5.507,0-11.082,1.964-11.082,5.719,0,.054.013.1.015.156s-.015.1-.015.152l.125,24.021-2.915-.5a1.708,1.708,0,0,0,.022-.23ZM90.278,83.589a1.76,1.76,0,0,0-1.283.28l-5.023,3.437L83.966,63.84q4.34-1.14,8.654-2.266c4.772-1.247,9.467-2.474,14.032-3.685.028,5.2.13,9.768.23,14.2.1,4.5.206,9.139.229,14.38ZM110.4,72.942c-.006-.311-.014-.623-.02-.933-.118-5.163-.238-10.5-.238-16.817a1.75,1.75,0,0,0-1.088-1.62c-5.664-2.316-12.36-4.617-18.958-6.854l-.006-11.067c7.588-2.04,15.088-4.052,22.294-5.972.026,6,.13,13.455.231,20.72.107,7.7.218,15.64.232,21.62ZM80.961,17.079c3.7,1.337,7.7,2.693,11.932,4.126,5.517,1.869,11.17,3.786,16.271,5.712-6.6,1.761-13.431,3.594-20.326,5.448-.038-.02-.07-.046-.11-.065-1.957-.9-3.94-1.826-5.942-2.761-6.069-2.837-12.3-5.742-18.513-8.2,5.529-1.446,11.02-2.861,16.687-4.262m-22.545,5.8c7.595,2.689,15.368,6.316,22.889,9.832.771.361,1.525.708,2.291,1.064l-1.685.454-3.388.912c-1.454-.664-2.906-1.325-4.382-2-6.783-3.12-13.762-6.322-20.7-8.944l.149-.04,4.829-1.273M47.763,25.687a1.715,1.715,0,0,0,.641.4c8.048,2.768,16.3,6.562,24.273,10.231l.545.249c-7.489,2.012-14.91,4-22.057,5.9-8.428-3.808-16.588-7.21-25.851-10.989,8.025-2.012,15.37-3.929,22.449-5.793M21.432,33.678c10.122,4.119,18.859,7.73,27.831,11.774l0,2.92-2.306.608c-8.079,2.133-16.386,4.325-25.526,6.636ZM15.7,109.857,15.7,61.777c7.5,2.746,15.125,6.259,22.525,9.676,1.788.826,3.552,1.635,5.307,2.436l.007,47.949c-1.281-.588-2.554-1.169-3.851-1.768-7.854-3.626-15.964-7.36-23.981-10.213M66.924,126.35l37.428,18.555L81.659,149.32,58.085,128.07Zm-10.866,4.6L79.405,152l-.025,5.438L56.058,136.416Zm88.376,41.419-32-15.3,11.593-2.256a1.673,1.673,0,0,0,.193-.058l4.487,2.225a1.736,1.736,0,0,0,1.028.47,1.717,1.717,0,0,0,.488.079,1.741,1.741,0,0,0,.56-.093l3.635-1.226,33.709,5.766Zm40.94-11L141.4,153.855l37.79-12.747a1.749,1.749,0,0,0,1.19-1.658v-3.788l32.195,5.6Z" transform="translate(1106.651 2350.521)" fill="#43aeca"/>
  </g>
</svg>
